<svg width="16" height="8" viewBox="0 0 16 8" fill="none" xmlns="http://www.w3.org/2000/svg">
<path fill-rule="evenodd" clip-rule="evenodd" d="M10.3915 0.209325C10.1266 0.0529905 9.82066 -0.018595 9.51433 0.00412076H6.24765C5.98936 -0.0067543 5.73169 0.0372794 5.49148 0.133324C5.3533 0.202243 5.23938 0.311994 5.16504 0.447833C5.0907 0.583673 5.05947 0.739101 5.07555 0.893286C5.06618 1.03826 5.09234 1.18334 5.15166 1.31582C5.21098 1.44831 5.30166 1.56415 5.41584 1.65325C5.65876 1.80932 5.94474 1.88383 6.23252 1.86604H8.19102C7.94032 2.21419 7.71052 2.57708 7.50288 2.95277C7.21143 3.46498 6.95866 3.99845 6.74671 4.5487C6.56731 4.9862 6.41826 5.43564 6.30059 5.89382C6.21564 6.1985 6.1674 6.51234 6.15692 6.82858C6.14095 7.13265 6.23493 7.43228 6.42156 7.67215C6.51528 7.77997 6.63186 7.86528 6.76272 7.92184C6.89359 7.97839 7.0354 8.00473 7.17773 7.99893C7.31807 8.00551 7.45819 7.98177 7.58863 7.92933C7.71907 7.87689 7.8368 7.79698 7.9339 7.69495C8.14135 7.45154 8.27517 7.15356 8.31956 6.83619C8.31956 6.75149 8.3407 6.6479 8.36596 6.52412V6.52411C8.38603 6.42578 8.4087 6.3147 8.42544 6.19022C8.46324 5.90903 8.49346 5.70385 8.53126 5.53666C8.56907 5.36947 8.61445 5.17186 8.68251 4.92868C8.83577 4.43191 9.03583 3.95098 9.27991 3.49236C9.46425 3.15183 9.67137 2.82428 9.89994 2.51201L10.4746 1.75205C10.6575 1.53936 10.7664 1.27255 10.7847 0.992084C10.792 0.838584 10.7597 0.68579 10.6908 0.548603C10.6219 0.411417 10.5187 0.294524 10.3915 0.209325ZM4.22403 3.13083C4.03862 3.03312 3.82446 2.98838 3.61003 3.00258H1.32336C1.14255 2.99578 0.962182 3.0233 0.794036 3.08333C0.697313 3.1264 0.617565 3.195 0.565528 3.2799C0.51349 3.3648 0.491627 3.46194 0.502884 3.5583C0.496323 3.64891 0.514635 3.73959 0.556159 3.82239C0.597682 3.90519 0.66116 3.97759 0.741085 4.03328C0.911133 4.13082 1.11132 4.17739 1.31276 4.16627H2.68372C2.50823 4.38387 2.34736 4.61067 2.20202 4.84548C1.998 5.16561 1.82106 5.49903 1.6727 5.84294C1.54711 6.11637 1.44278 6.39727 1.36041 6.68364C1.30095 6.87406 1.26718 7.07021 1.25984 7.26786C1.24866 7.45791 1.31445 7.64517 1.44509 7.79509C1.51069 7.86248 1.5923 7.9158 1.68391 7.95115C1.77551 7.98649 1.87478 8.00296 1.97441 7.99933C2.07265 8.00344 2.17073 7.9886 2.26204 7.95583C2.35335 7.92306 2.43576 7.87311 2.50373 7.80934C2.64894 7.65721 2.74262 7.47097 2.77369 7.27262C2.77369 7.21968 2.78849 7.15494 2.80617 7.07757C2.82022 7.01611 2.83609 6.94669 2.8478 6.86889C2.87427 6.69314 2.89542 6.56491 2.92188 6.46041C2.94835 6.35592 2.98012 6.23242 3.02776 6.08042C3.13504 5.76995 3.27508 5.46936 3.44594 5.18273C3.57497 4.96989 3.71996 4.76518 3.87995 4.57L4.28224 4.09503C4.41024 3.9621 4.48645 3.79535 4.49928 3.62005C4.50443 3.52412 4.48178 3.42862 4.43354 3.34288C4.3853 3.25714 4.31311 3.18408 4.22403 3.13083ZM14.61 3.00258C14.8245 2.98838 15.0386 3.03312 15.224 3.13083C15.3131 3.18408 15.3853 3.25714 15.4335 3.34288C15.4818 3.42862 15.5044 3.52412 15.4993 3.62005C15.4864 3.79535 15.4102 3.9621 15.2822 4.09503L14.88 4.57C14.72 4.76518 14.575 4.96989 14.4459 5.18273C14.2751 5.46936 14.135 5.76995 14.0278 6.08042C13.9801 6.23242 13.9484 6.35592 13.9219 6.46041C13.8954 6.56491 13.8743 6.69314 13.8478 6.86889C13.8361 6.94669 13.8202 7.01611 13.8062 7.07757C13.7885 7.15494 13.7737 7.21968 13.7737 7.27262C13.7426 7.47097 13.6489 7.65721 13.5037 7.80934C13.4358 7.87311 13.3534 7.92306 13.262 7.95583C13.1707 7.9886 13.0726 8.00344 12.9744 7.99933C12.8748 8.00296 12.7755 7.98649 12.6839 7.95115C12.5923 7.9158 12.5107 7.86248 12.4451 7.79509C12.3145 7.64517 12.2487 7.45791 12.2598 7.26786C12.2672 7.07021 12.3009 6.87406 12.3604 6.68364C12.4428 6.39727 12.5471 6.11637 12.6727 5.84294C12.8211 5.49903 12.998 5.16561 13.202 4.84548C13.3474 4.61067 13.5082 4.38387 13.6837 4.16627H12.3128C12.1113 4.17739 11.9111 4.13082 11.7411 4.03328C11.6612 3.97759 11.5977 3.90519 11.5562 3.82239C11.5146 3.73959 11.4963 3.64891 11.5029 3.5583C11.4916 3.46194 11.5135 3.3648 11.5655 3.2799C11.6176 3.195 11.6973 3.1264 11.794 3.08333C11.9622 3.0233 12.1426 2.99578 12.3234 3.00258H14.61Z" fill="#D9D9D9"/>
</svg>
