<svg width="30" height="30" viewBox="0 0 30 30" fill="none" xmlns="http://www.w3.org/2000/svg">
<path d="M29.7253 14.3371L15.6628 0.27457C15.2972 -0.0915235 14.7028 -0.0915235 14.3372 0.27457L0.274657 14.3371C0.0065316 14.6052 -0.0736246 15.0083 0.0712191 15.3585C0.216532 15.7091 0.55825 15.9374 0.937469 15.9374H3.74997V29.0624C3.74997 29.5799 4.16997 29.9999 4.68747 29.9999H11.25C11.7675 29.9999 12.1875 29.5799 12.1875 29.0624V25.3124C12.1875 24.7949 12.6075 24.3749 13.125 24.3749C13.6425 24.3749 16.3575 24.3749 16.875 24.3749C17.3925 24.3749 17.8125 24.7949 17.8125 25.3124V29.0624C17.8125 29.5799 18.2325 29.9999 18.75 29.9999H25.3125C25.83 29.9999 26.25 29.5799 26.25 29.0624V15.9374H29.0625C29.4417 15.9374 29.7834 15.7091 29.9287 15.3585C30.0736 15.0083 29.9934 14.6052 29.7253 14.3371Z" fill="url(#paint0_linear_3_36)"/>
<defs>
<linearGradient id="paint0_linear_3_36" x1="14.8762" y1="-0.526171" x2="14.8762" y2="30.0683" gradientUnits="userSpaceOnUse">
<stop stop-color="#FFC876"/>
<stop offset="1" stop-color="#FF6E04"/>
</linearGradient>
</defs>
</svg>
